<svg xmlns="http://www.w3.org/2000/svg" viewBox="0 0 16 16">
    <path d="M2 0v16h12V4l-4-4H2z" fill="#EFEFEF"/>
    <path d="M10 3.98V0l4 4-4-.02z" fill="#FFF" opacity=".65"/>
    <path d="M13 5v5L9 5h4z" opacity=".2"/>
    <path d="M2 0v16h12V4h-.012l.004-.008L10.008.006 10 .014V0H2zm1 1h6v4h4v10H3V1zm7 .412L12.586 4H10V1.412z"
          fill="#999"/>
    <path fill="#666"
          d="M7.422 12.143q0 .109-.012.187-.012.074-.035.121-.02.043-.047.063-.027.02-.062.02h-2.79q-.03 0-.058-.02-.027-.02-.05-.063-.02-.047-.032-.12-.012-.079-.012-.188 0-.114.008-.188.012-.078.031-.125.024-.047.051-.066.027-.024.063-.024h.941V8.451l-.813.45q-.09.042-.148.054-.055.008-.09-.023-.031-.036-.043-.118-.012-.082-.012-.23 0-.094.004-.152.004-.063.02-.106t.043-.07q.027-.027.074-.059l1.086-.703q.02-.015.047-.023.031-.012.078-.016.047-.008.121-.008.078-.004.2-.004.148 0 .238.008.093.004.14.02.047.011.063.035.015.023.015.058v4.176h.825q.035 0 .062.024.031.02.05.066.024.047.032.125.012.074.012.188zM11.687 11.08q0 .2-.042.305-.04.101-.11.101h-.45v.914q0 .04-.023.07-.023.028-.082.048-.058.02-.152.027-.094.012-.242.012-.14 0-.238-.012-.094-.008-.153-.027-.054-.02-.078-.047-.02-.032-.02-.07v-.915H8.165q-.055 0-.098-.011-.043-.016-.074-.063-.027-.05-.043-.14-.012-.094-.012-.247 0-.125.004-.214.008-.094.02-.168.016-.075.039-.141.027-.066.066-.14l1.57-2.77q.02-.035.067-.059.047-.027.129-.043.086-.02.215-.027.129-.008.312-.008.2 0 .34.012.14.008.223.031.086.02.125.05.039.032.039.075v3.043h.45q.062 0 .105.098.047.093.047.316zm-1.59-2.738h-.007l-1.332 2.324h1.34z"/>
</svg>
